# xmcd
#
# Track frame offsets: 
#        150
#        18817
#        32062
#        56080
#        75635
#        94270
#        110375
#        128597
#        143162
#        158152
#        173165
#        188922
#        204612
#        219112
#        242692
#
# Disc length: 3487 seconds
#
# Revision: 2
# Processed by: cddbd v1.5.1PL0 Copyright (c) Steve Scherf et al.
# Submitted via: ExactAudioCopy v0.95a5
#
DISCID=c10d9d0f
DTITLE=Rosanne Cash - Retrospective
DYEAR=1995
DGENRE=Country
TTITLE0=Our Little Angel
TTITLE1=On The Surface
TTITLE2=All Come True (Outtake from 'Interiors')
TTITLE3=The Wheel
TTITLE4=Sleeping In Paris
TTITLE5=707 (Outtake from 'King's Record Shop')
TTITLE6=Runaway Train
TTITLE7=I'm Only Sleeping
TTITLE8=It Hasn't Happened Yet
TTITLE9=On The Inside
TTITLE10=What We Really Want
TTITLE11=I Count The Tears (Originally Released on 'Till The Night Is 
TTITLE11=Gone - A Tribute To Doc Pomus' - 1995)
TTITLE12=Pink Bedroom
TTITLE13=Seventh Avenue
TTITLE14=A Lover Is Forever (Recorded Live at The Coach House, San Jua
TTITLE14=n Capistrona - 1991)
EXTD=(c)1995 Sony Music Entertainment Inc - Columbia Records, New York
EXTD=\n(p)1982,1985,1987,1989,1990,1991,1993,1994,1995 Sony Music\n\nu
EXTD=pc 074646732120\nCOLUMBIA CK 67321\n
EXTT0=
EXTT1=
EXTT2=
EXTT3=
EXTT4=
EXTT5=
EXTT6=
EXTT7=
EXTT8=
EXTT9=
EXTT10=
EXTT11=
EXTT12=
EXTT13=
EXTT14=
PLAYORDER=
